<?xml version="1.0" encoding="utf-8"?>
<!-- Generator: Adobe Illustrator 21.1.0, SVG Export Plug-In . SVG Version: 6.00 Build 0)  -->
<svg version="1.1" id="Layer_1" xmlns="http://www.w3.org/2000/svg" xmlns:xlink="http://www.w3.org/1999/xlink" x="0px" y="0px"
	 viewBox="0 0 360 65" style="enable-background:new 0 0 360 65;" xml:space="preserve">
<style type="text/css">
	.st0{fill:#198D00;}
	.st1{fill:#868786;}
</style>
<g>
	<path class="st0" d="M31.4,47.4L26,26.2l-5.4,21.2h-7L4.8,16.5h7.4l5.4,22.3l5.9-22.3h5.1l5.8,22.3l5.4-22.3h7.4l-8.8,30.9H31.4z"
		/>
	<path class="st0" d="M44.5,36.2c0-6.5,4.8-11.7,11.6-11.7c6.7,0,11.2,5,11.2,12.3v1.3H50.7c0.4,2.8,2.6,5.2,6.4,5.2
		c1.9,0,4.5-0.8,6-2.2l2.6,3.8c-2.2,2-5.7,3.1-9.2,3.1C49.7,48,44.5,43.4,44.5,36.2z M56.1,29.2c-3.7,0-5.2,2.7-5.5,5h11
		C61.5,32,60,29.2,56.1,29.2z"/>
	<path class="st0" d="M70.2,47.4V16.5H76v11.4c1.8-2.3,4.3-3.4,6.9-3.4c5.7,0,9.9,4.4,9.9,11.8c0,7.5-4.3,11.7-9.9,11.7
		c-2.7,0-5.1-1.2-6.9-3.4v2.9H70.2z M81.1,42.7c3.4,0,5.7-2.6,5.7-6.5c0-3.9-2.3-6.5-5.7-6.5c-1.9,0-4.1,1.1-5,2.6v7.9
		C77,41.7,79.2,42.7,81.1,42.7z"/>
	<path class="st0" d="M93.9,44.5l2.5-4.1c1.6,1.5,5,3.1,7.7,3.1c2.5,0,3.7-1,3.7-2.4c0-3.7-13.3-0.7-13.3-9.5c0-3.7,3.3-7,9.2-7
		c3.8,0,6.8,1.3,9,3.1l-2.4,4c-1.3-1.4-3.9-2.6-6.6-2.6c-2.1,0-3.5,1-3.5,2.2c0,3.3,13.2,0.6,13.2,9.6c0,4.1-3.5,7.2-9.7,7.2
		C100.1,48,96.3,46.7,93.9,44.5z"/>
	<path class="st0" d="M118.7,41.9V30.2H115v-5.1h3.7v-6.1h5.9v6.1h4.5v5.1h-4.5v10.1c0,1.4,0.7,2.5,2,2.5c0.9,0,1.7-0.3,2-0.6
		l1.2,4.4c-0.9,0.8-2.5,1.4-4.9,1.4C120.9,48,118.7,45.8,118.7,41.9z"/>
	<path class="st0" d="M146.1,47.4v-2.3c-1.5,1.8-4.2,2.9-7.1,2.9c-3.6,0-7.8-2.4-7.8-7.4c0-5.2,4.2-7.2,7.8-7.2c3,0,5.6,1,7.1,2.7
		v-3c0-2.3-1.9-3.7-4.9-3.7c-2.4,0-4.6,0.9-6.5,2.6l-2.2-3.9c2.7-2.4,6.2-3.5,9.8-3.5c5.1,0,9.8,2,9.8,8.5v14.4H146.1z M146.1,42
		v-2.8c-1-1.3-2.8-1.9-4.7-1.9c-2.3,0-4.2,1.2-4.2,3.4c0,2.1,1.9,3.3,4.2,3.3C143.3,44,145.1,43.3,146.1,42z"/>
	<path class="st0" d="M170.6,47.4v-2.8c-1.5,1.7-4.2,3.4-7.9,3.4c-4.9,0-7.2-2.7-7.2-7V25.1h5.9v13.6c0,3.1,1.6,4.1,4.1,4.1
		c2.3,0,4.1-1.2,5.1-2.5V25.1h5.9v22.4H170.6z"/>
	<path class="st0" d="M180.9,47.4V25.1h5.9v3.1c1.6-2,4.4-3.6,7.1-3.6v5.7c-0.4-0.1-1-0.1-1.6-0.1c-1.9,0-4.5,1.1-5.5,2.5v14.8
		H180.9z"/>
	<path class="st0" d="M209.6,47.4v-2.3c-1.5,1.8-4.2,2.9-7.1,2.9c-3.6,0-7.8-2.4-7.8-7.4c0-5.2,4.2-7.2,7.8-7.2c3,0,5.6,1,7.1,2.7
		v-3c0-2.3-1.9-3.7-4.9-3.7c-2.4,0-4.6,0.9-6.5,2.6L196,28c2.7-2.4,6.2-3.5,9.8-3.5c5.1,0,9.8,2,9.8,8.5v14.4H209.6z M209.6,42v-2.8
		c-1-1.3-2.8-1.9-4.7-1.9c-2.3,0-4.2,1.2-4.2,3.4c0,2.1,1.9,3.3,4.2,3.3C206.8,44,208.6,43.3,209.6,42z"/>
	<path class="st0" d="M235,47.4V33.9c0-3.1-1.6-4.2-4.1-4.2c-2.3,0-4.1,1.3-5.1,2.6v15h-5.9V25.1h5.9V28c1.4-1.7,4.2-3.5,7.8-3.5
		c4.9,0,7.3,2.8,7.3,7.1v15.8H235z"/>
	<path class="st0" d="M247.4,41.9V30.2h-3.7v-5.1h3.7v-6.1h5.9v6.1h4.5v5.1h-4.5v10.1c0,1.4,0.7,2.5,2,2.5c0.9,0,1.7-0.3,2-0.6
		l1.2,4.4c-0.9,0.8-2.5,1.4-4.9,1.4C249.7,48,247.4,45.8,247.4,41.9z"/>
	<path class="st1" d="M260.7,43.1l1.7-2c2,2.3,5.2,4.5,9.6,4.5c6.3,0,8.1-3.5,8.1-6.2c0-9.1-18.5-4.4-18.5-15.1
		c0-5,4.5-8.2,10.1-8.2c4.6,0,8.1,1.6,10.5,4.4l-1.8,1.9c-2.2-2.7-5.4-3.9-8.8-3.9c-4.1,0-7.2,2.4-7.2,5.7c0,7.9,18.5,3.6,18.5,15.1
		c0,4-2.6,8.7-11,8.7C266.9,48,263,45.9,260.7,43.1z"/>
	<path class="st1" d="M288.3,43.1V27.2h-3.7v-2.1h3.7v-6.1h2.5v6.1h4.5v2.1h-4.5v15.6c0,1.8,0.7,3.1,2.3,3.1c1.1,0,2-0.5,2.5-1.1
		l0.9,1.9c-0.9,0.8-1.9,1.4-3.8,1.4C289.7,48,288.3,46.2,288.3,43.1z"/>
	<path class="st1" d="M297,36.2c0-6.5,4.2-11.7,10.7-11.7c6.6,0,10.8,5.2,10.8,11.7S314.3,48,307.7,48C301.2,48,297,42.7,297,36.2z
		 M315.9,36.2c0-5-2.9-9.5-8.2-9.5c-5.2,0-8.1,4.6-8.1,9.5c0,5,3,9.6,8.1,9.6C313,45.8,315.9,41.2,315.9,36.2z"/>
	<path class="st1" d="M321.5,47.4V25.1h2.4v3.8c1.9-2.5,4.4-4.3,7.5-4.3v2.6c-0.4-0.1-0.7-0.1-1.2-0.1c-2.3,0-5.3,2-6.3,4v16.3
		H321.5z"/>
	<path class="st1" d="M331.6,36.2c0-6.5,4.6-11.7,10.8-11.7c6.8,0,10.6,5.4,10.6,11.8V37h-18.7c0.2,4.9,3.5,8.9,8.7,8.9
		c2.8,0,5.4-1.1,7.3-3.1l1.3,1.6c-2.2,2.3-5,3.6-8.7,3.6C336.3,48,331.6,43.1,331.6,36.2z M342.3,26.6c-5.3,0-7.9,4.6-8.1,8.5h16.2
		C350.4,31.3,347.9,26.6,342.3,26.6z"/>
</g>
</svg>
