<svg width="408" height="46" viewBox="0 0 408 46" xmlns="http://www.w3.org/2000/svg" xmlns:xlink="http://www.w3.org/1999/xlink"><title>Group</title><defs><filter x="-1.4%" y="-12.5%" width="102.8%" height="134.4%" filterUnits="objectBoundingBox" id="a"><feOffset dy="1" in="SourceAlpha" result="shadowOffsetOuter1"/><feGaussianBlur stdDeviation="1.5" in="shadowOffsetOuter1" result="shadowBlurOuter1"/><feColorMatrix values="0 0 0 0 0 0 0 0 0 0 0 0 0 0 0 0 0 0 0.15 0" in="shadowBlurOuter1" result="shadowMatrixOuter1"/><feMerge><feMergeNode in="shadowMatrixOuter1"/><feMergeNode in="SourceGraphic"/></feMerge></filter><filter x="-12.5%" y="-9.8%" width="125%" height="124.4%" filterUnits="objectBoundingBox" id="b"><feOffset dy="1" in="SourceAlpha" result="shadowOffsetOuter1"/><feGaussianBlur stdDeviation="1.5" in="shadowOffsetOuter1" result="shadowBlurOuter1"/><feColorMatrix values="0 0 0 0 0 0 0 0 0 0 0 0 0 0 0 0 0 0 0.15 0" in="shadowBlurOuter1" result="shadowMatrixOuter1"/><feMerge><feMergeNode in="shadowMatrixOuter1"/><feMergeNode in="SourceGraphic"/></feMerge></filter><path id="c" d="M31.966 30.864V.034H.06v30.83z"/><path id="e" d="M6.01 13h5.953V.098H.06V13h5.95z"/><path id="g" d="M0 40h39.966V.034H0z"/></defs><g fill="none" fill-rule="evenodd"><path d="M26.877 31.836l-5.47-21.028-5.42 21.028h-7.06L0 1.213h7.432l5.47 22.13 5.936-22.13h5.187l5.89 22.13 5.422-22.13h7.48l-8.882 30.623h-7.058m24.81-19.056c-3.693 0-5.283 2.794-5.563 5.066H57.25c-.14-2.178-1.636-5.065-5.563-5.065M40 19.98C40 13.35 44.816 8 51.687 8 58.42 8 63 13.112 63 20.592v1.326H46.217c.375 2.887 2.665 5.302 6.5 5.302 1.915 0 4.58-.853 6.03-2.273l2.617 3.88C59.12 30.913 55.567 32 52.06 32 45.19 32 40 27.313 40 19.977m37.077 6.863c3.474 0 5.774-2.556 5.774-6.39 0-3.836-2.3-6.438-5.77-6.438-1.92 0-4.13 1.095-5.11 2.556v7.808c.99 1.416 3.2 2.465 5.12 2.465M66 31.46V1h5.96v11.23c1.785-2.237 4.32-3.378 6.995-3.378C84.728 8.852 89 13.236 89 20.45 89 27.8 84.682 32 78.955 32c-2.723 0-5.21-1.186-6.994-3.378v2.83H66m24-3.002l2.588-4.214c1.647 1.562 5.035 3.125 7.86 3.125 2.588 0 3.81-1.04 3.81-2.46 0-3.78-13.505-.71-13.505-9.7 0-3.83 3.34-7.19 9.317-7.19 3.86 0 6.918 1.33 9.177 3.13l-2.4 4.12c-1.364-1.47-3.953-2.65-6.73-2.65-2.164 0-3.576.996-3.576 2.273 0 3.41 13.46.57 13.46 9.8 0 4.163-3.53 7.335-9.83 7.335C96.21 32 92.4 30.675 90 28.45m24.715-2.555V14.24H111V9.104h3.715V3h5.945v6.105h4.55v5.134h-4.55v10.08c0 1.38.742 2.45 2.043 2.45.882 0 1.718-.33 2.044-.65L126 30.56c-.882.788-2.46 1.435-4.923 1.435-4.133 0-6.362-2.127-6.362-6.105m28.332.048V23.1c-.984-1.325-2.86-1.988-4.78-1.988-2.345 0-4.267 1.232-4.267 3.457 0 2.12 1.922 3.35 4.266 3.35 1.922 0 3.797-.66 4.78-1.99m0 5.49v-2.36c-1.546 1.85-4.216 2.94-7.17 2.94-3.61 0-7.875-2.46-7.875-7.58 0-5.35 4.27-7.387 7.88-7.387 3 0 5.67 1 7.17 2.8v-3.08c0-2.32-1.97-3.83-4.97-3.83-2.43 0-4.68.9-6.61 2.7l-2.25-4.025c2.77-2.463 6.33-3.6 9.89-3.6 5.16 0 9.89 2.084 9.89 8.664v14.77h-5.95m24.07.01v-2.84c-1.53 1.72-4.22 3.39-7.88 3.39-4.91 0-7.23-2.695-7.23-7.06V9h5.89v13.614c0 3.113 1.62 4.135 4.13 4.135 2.27 0 4.08-1.26 5.1-2.56V9H173v22.442h-5.888M178 31V8.557h5.875v3.067C185.45 9.626 188.225 8 191 8v5.76c-.417-.092-.97-.138-1.62-.138-1.942 0-4.533 1.115-5.505 2.555V31H178m29.047-5.06V23.1c-.985-1.325-2.86-1.988-4.78-1.988-2.346 0-4.267 1.232-4.267 3.457 0 2.12 1.92 3.35 4.266 3.35 1.92 0 3.796-.66 4.78-1.99m0 5.49v-2.36c-1.546 1.85-4.216 2.94-7.17 2.94-3.61 0-7.875-2.46-7.875-7.58 0-5.35 4.27-7.387 7.88-7.387 3 0 5.67 1 7.17 2.8v-3.08c0-2.32-1.97-3.83-4.97-3.83-2.43 0-4.68.9-6.61 2.7l-2.25-4.025c2.77-2.463 6.33-3.6 9.89-3.6 5.16 0 9.89 2.084 9.89 8.664v14.77h-5.95m26.06-.44V17.43c0-3.113-1.62-4.182-4.12-4.182-2.32 0-4.122 1.3-5.1 2.648V31H218V8.557h5.888v2.927C225.324 9.764 228.06 8 231.722 8c4.914 0 7.278 2.788 7.278 7.155V31h-5.888m11.604-5.105V14.24H241V9.104h3.716V3h5.944v6.105h4.55v5.134h-4.55v10.08c0 1.38.742 2.45 2.043 2.45.882 0 1.718-.33 2.043-.65L256 30.56c-.882.788-2.462 1.435-4.922 1.435-4.134 0-6.362-2.127-6.362-6.105M258 27.083l1.77-1.992c2.055 2.32 5.402 4.5 9.945 4.5 6.55 0 8.416-3.52 8.416-6.17 0-9.09-19.12-4.36-19.12-15.16 0-5.06 4.68-8.26 10.47-8.26 4.78 0 8.32 1.63 10.81 4.36l-1.813 1.95c-2.296-2.69-5.547-3.89-9.134-3.89-4.255 0-7.46 2.37-7.46 5.71 0 7.93 19.13 3.57 19.13 15.12 0 3.99-2.726 8.77-11.334 8.77-5.26 0-9.23-2.04-11.666-4.915m28.736.06V11.24H283V9.11h3.736V3h2.474v6.106h4.576v2.127h-4.576v15.54c0 1.804.747 3.053 2.334 3.053 1.074 0 2.01-.508 2.522-1.063l.934 1.85c-.888.832-1.962 1.387-3.83 1.387-2.987 0-4.434-1.803-4.434-4.856m27.616-7.168c0-5.065-2.982-9.75-8.376-9.75-5.3 0-8.326 4.685-8.326 9.75 0 5.113 3.027 9.8 8.326 9.8 5.394 0 8.376-4.687 8.376-9.8m-19.352 0C295 13.302 299.306 8 305.976 8 312.742 8 317 13.302 317 19.976 317 26.65 312.742 32 305.976 32 299.306 32 295 26.65 295 19.976M320 31V8.467h2.42v3.872C324.325 9.82 326.883 8 330 8v2.66c-.418-.094-.744-.094-1.21-.094-2.278 0-5.348 2.052-6.37 4.012V31H320m21.072-20.87c-5.44 0-8.16 4.733-8.35 8.71h16.748c-.047-3.88-2.624-8.71-8.398-8.71M330 19.976C330 13.348 334.724 8 341.12 8 348.134 8 352 13.538 352 20.118v.663h-19.28c.24 4.97 3.58 9.09 9.02 9.09 2.912 0 5.584-1.09 7.54-3.17l1.288 1.61c-2.29 2.37-5.2 3.69-9.02 3.69C334.822 32 330 27.03 330 19.98" filter="url(#a)" transform="translate(53 6)" fill="#FFFFFE"/><g filter="url(#b)" transform="translate(3 2)"><path d="M0 5.653V19L3 1c-1.78.862-3 2.62-3 4.653" fill="#198D00"/><g transform="translate(8)"><mask id="d" fill="#fff"><use xlink:href="#c"/></mask><path d="M15.46 4.395l6.324 2.91-4.48 23.56L31.967 12.11V5.25c0-2.88-2.366-5.217-5.284-5.217H5.08L.06 22.925l15.4-18.53z" fill="#198D00" mask="url(#d)"/></g><g transform="translate(28 27)"><mask id="f" fill="#fff"><use xlink:href="#e"/></mask><path d="M.06 13h6.12c3.194 0 5.783-2.437 5.783-5.444V.098L.06 13z" fill="#198D00" mask="url(#f)"/></g><path d="M6.74 35.798L0 32.668v2.038C0 37.63 2.38 40 5.317 40H16.54L21 18 6.74 35.798z" fill="#198D00"/><mask id="h" fill="#fff"><use xlink:href="#g"/></mask><path d="M39.966 12.325l-14.73 19.083 4.5-23.974-6.353-2.962L7.91 23.33 12.952.034H5.31c-.865 0-1.68.208-2.402.575L0 18.92v13.723l6.73 3.138 14.24-17.85L16.517 40h12.52l10.93-12.584v-15.09z" fill="#FFF" mask="url(#h)"/></g></g></svg>